<svg width="20" height="20" viewBox="0 0 20 20" fill="none" xmlns="http://www.w3.org/2000/svg">
<path fill-rule="evenodd" clip-rule="evenodd" d="M6.44269 17.3606C6.02013 17.5811 5.50893 17.5423 5.12454 17.2604C4.74015 16.9785 4.54943 16.5027 4.63277 16.0333L5.30722 12.1676L2.4677 9.44643C2.12062 9.11544 1.99342 8.6151 2.14028 8.15853C2.28714 7.70196 2.68219 7.36961 3.15715 7.30304L7.09963 6.73947L8.87954 3.18883C9.09057 2.763 9.52475 2.49361 10 2.49361C10.4753 2.49361 10.9094 2.763 11.1205 3.18883L12.9004 6.73947L16.8429 7.30304C17.3178 7.36961 17.7129 7.70196 17.8597 8.15853C18.0066 8.6151 17.8794 9.11544 17.5323 9.44643L14.6928 12.1676L15.3672 16.0342C15.4506 16.5035 15.2599 16.9794 14.8755 17.2613C14.4911 17.5431 13.9799 17.582 13.5573 17.3614L10 15.5231L6.44269 17.3606Z" fill="#FAE101" stroke="#FAE101" stroke-width="1.5" stroke-linecap="round" stroke-linejoin="round"/>
</svg>
